<?xml version="1.0" encoding="iso-8859-1"?>
<!-- Generator: Adobe Illustrator 19.0.0, SVG Export Plug-In . SVG Version: 6.00 Build 0)  -->
<svg xmlns="http://www.w3.org/2000/svg" xmlns:xlink="http://www.w3.org/1999/xlink" version="1.1" id="Layer_1" x="0px" y="0px" viewBox="0 0 511.999 511.999" style="enable-background:new 0 0 511.999 511.999;" xml:space="preserve">
<g>
	<g>
		<path d="M374.035,210.238c0-9.353-4.469-17.679-11.382-22.963c4.044-4.88,6.512-11.064,6.599-17.789    c0.102-7.864-2.902-15.257-8.459-20.813c-5.456-5.457-12.713-8.462-20.435-8.462h-66.982c1.736-8.172,3.529-19.995,3.529-33.962    c-0.001-13.797-7.633-25.387-21.477-32.626c-5.518-2.898-12.089-2.833-17.581,0.177c-5.539,3.035-9.164,8.595-9.696,14.88    c-0.472,5.625-1.71,12.706-3.68,21.046c-4.11,17.413-12.012,34.06-23.49,49.574h-2.149c-32.075,0-58.169,26.09-58.169,58.158    v45.771c0,32.074,26.094,58.169,58.169,58.169h48.682h10.71h19.719c4.603,0,8.332-3.731,8.332-8.332s-3.729-8.332-8.332-8.332    h-19.719h-10.71c-26.488,0-48.037-21.549-48.037-48.037v-51.781c0-11.071,3.656-21.471,10.574-30.076    c15.191-18.894,25.5-39.513,30.64-61.286c2.156-9.139,3.525-17.039,4.065-23.474c0.081-0.97,0.722-1.459,1.098-1.665    c0.424-0.231,1.085-0.427,1.836-0.031c12.548,6.561,12.548,15.071,12.548,17.867c0,20.484-4.359,35.935-5.459,39.506    c-0.309,0.872-0.478,1.81-0.478,2.787c0,4.602,3.73,8.332,8.332,8.332h77.722c3.269,0,6.341,1.272,8.65,3.581    c2.352,2.352,3.624,5.483,3.582,8.815c-0.087,6.653-5.809,12.067-12.758,12.067h-34.112c-4.603,0-8.332,3.731-8.332,8.332    c0,2.302,0.933,4.385,2.442,5.892c1.508,1.509,3.592,2.442,5.892,2.442h39.415c6.745,0,12.233,5.487,12.233,12.233    c0,6.745-5.487,12.233-12.233,12.233H305.72c-4.603,0-8.332,3.731-8.332,8.332c0,4.602,3.729,8.332,8.332,8.332h39.415    c6.745,0,12.233,5.487,12.233,12.233c0,6.746-5.487,12.233-12.233,12.233H305.72c-3.164,0-5.917,1.764-7.327,4.362    c-0.642,1.181-1.007,2.535-1.007,3.974c0,4.602,3.729,8.332,8.332,8.332h18.853c3.27,0,6.341,1.272,8.651,3.582    c2.339,2.339,3.611,5.453,3.581,8.768c-0.061,6.68-5.781,12.114-12.751,12.114h-18.333c-4.603,0-8.332,3.731-8.332,8.332    s3.729,8.332,8.332,8.332h18.333c16.075,0,29.27-12.841,29.416-28.627c0.041-4.594-0.984-9.021-2.951-13.015    c13.371-2.529,23.518-14.291,23.518-28.387c0-8.041-3.304-15.321-8.621-20.565C370.731,225.559,374.035,218.279,374.035,210.238z     M204.225,304.734h-5.39c-22.887,0-41.505-18.62-41.505-41.505v-45.771c0-19.53,13.57-35.943,31.778-40.332    c-4.097,8.633-6.291,18.142-6.291,27.789v51.781C182.814,275.739,191.088,292.884,204.225,304.734z"/>
	</g>
</g>
<g>
	<g>
		<path d="M471.246,24.766H40.754C18.283,24.766,0,43.049,0,65.52v59.227c0,4.602,3.731,8.332,8.332,8.332    c4.601,0,8.332-3.731,8.332-8.332V65.52c0-13.284,10.807-24.09,24.09-24.09h430.492c13.284,0,24.09,10.807,24.09,24.09v284.411    h-52.21c-4.602,0-8.332,3.731-8.332,8.332s3.731,8.332,8.332,8.332h52.21v15.273c0,13.284-10.807,24.09-24.09,24.09h-155.41    H196.164H40.754c-13.284,0-24.09-10.807-24.09-24.09v-15.273h398.688c4.602,0,8.332-3.731,8.332-8.332s-3.731-8.332-8.332-8.332    H16.664V152.522c0-4.602-3.731-8.332-8.332-8.332c-4.601,0-8.332,3.73-8.332,8.332V381.87c0,22.472,18.283,40.754,40.754,40.754    H183.54l-20.494,47.945h-40.034c-4.602,0-8.332,3.731-8.332,8.332s3.731,8.332,8.332,8.332h265.975    c4.602,0,8.332-3.731,8.332-8.332s-3.731-8.332-8.332-8.332h-40.034l-20.494-47.945h142.786c22.472,0,40.754-18.282,40.754-40.754    V65.52C512,43.049,493.717,24.766,471.246,24.766z M330.83,470.568H181.17l14.238-33.31h121.185L330.83,470.568z"/>
	</g>
</g>
<g>
	<g>
		<path d="M262.924,379.678c-1.914-2.905-5.583-4.298-8.952-3.456c-3.517,0.879-6.116,4.048-6.291,7.67    c-0.364,7.534,9.106,11.629,14.33,6.171C264.674,387.281,265.089,382.886,262.924,379.678z"/>
	</g>
</g>
<g>
</g>
<g>
</g>
<g>
</g>
<g>
</g>
<g>
</g>
<g>
</g>
<g>
</g>
<g>
</g>
<g>
</g>
<g>
</g>
<g>
</g>
<g>
</g>
<g>
</g>
<g>
</g>
<g>
</g>
</svg>
