<?xml version="1.0" encoding="iso-8859-1"?>
<!-- Generator: Adobe Illustrator 19.0.0, SVG Export Plug-In . SVG Version: 6.00 Build 0)  -->
<svg xmlns="http://www.w3.org/2000/svg" xmlns:xlink="http://www.w3.org/1999/xlink" version="1.1" id="Layer_1" x="0px" y="0px" viewBox="0 0 511.999 511.999" style="enable-background:new 0 0 511.999 511.999;" xml:space="preserve">
<g>
	<g>
		<path d="M367.679,58.487H95.271c-4.602,0-8.332,3.731-8.332,8.332v209.28c0,4.602,3.731,8.332,8.332,8.332h272.408    c4.603,0,8.332-3.731,8.332-8.332V66.819C376.011,62.217,372.281,58.487,367.679,58.487z M359.347,267.766H103.603V126.64h255.744    V267.766z M359.347,109.976H103.603V75.151h255.744V109.976z"/>
	</g>
</g>
<g>
	<g>
		<path d="M416.729,107.533h-23.535c-4.603,0-8.332,3.731-8.332,8.332c0,4.602,3.729,8.332,8.332,8.332h15.203v34.824h-15.203    c-4.603,0-8.332,3.731-8.332,8.332c0,4.601,3.729,8.332,8.332,8.332h15.203v51.936c0,4.602,3.729,8.332,8.332,8.332    c4.603,0,8.332-3.731,8.332-8.332V115.865C425.062,111.263,421.332,107.533,416.729,107.533z"/>
	</g>
</g>
<g>
	<g>
		<path d="M416.728,247.062c-4.603,0-8.332,3.731-8.332,8.332v61.421H152.652v-14.831c0-4.602-3.731-8.332-8.332-8.332    s-8.332,3.731-8.332,8.332v23.163c0,4.602,3.731,8.332,8.332,8.332h272.408c4.603,0,8.332-3.731,8.332-8.332v-69.753    C425.06,250.793,421.331,247.062,416.728,247.062z"/>
	</g>
</g>
<g>
	<g>
		<path d="M114.82,85.002c-3.385,2.133-4.764,6.538-3.24,10.23c1.351,3.201,4.616,5.311,8.107,5.133    c3.328-0.17,6.311-2.381,7.428-5.518C129.714,87.54,121.387,80.864,114.82,85.002z"/>
	</g>
</g>
<g>
	<g>
		<path d="M163.668,85.002c-3.384,2.142-4.767,6.527-3.24,10.23c1.322,3.133,4.472,5.224,7.892,5.138    c3.638-0.092,6.849-2.612,7.826-6.11C178.147,87.093,169.974,81.009,163.668,85.002z"/>
	</g>
</g>
<g>
	<g>
		<path d="M139.247,85.002c-3.406,2.162-4.739,6.502-3.248,10.23c1.414,3.352,4.923,5.48,8.562,5.096    c3.316-0.35,6.161-2.715,7.118-5.908C153.834,87.221,145.604,80.967,139.247,85.002z"/>
	</g>
</g>
<g>
	<g>
		<path d="M309.062,83.71H195.297c-4.602,0-8.332,3.731-8.332,8.332s3.731,8.332,8.332,8.332h113.765    c4.603,0,8.332-3.731,8.332-8.332S313.664,83.71,309.062,83.71z"/>
	</g>
</g>
<g>
	<g>
		<path d="M471.246,24.766H40.754C18.283,24.766,0,43.049,0,65.52v59.227c0,4.602,3.731,8.332,8.332,8.332    c4.601,0,8.332-3.731,8.332-8.332V65.52c0-13.284,10.807-24.09,24.09-24.09h430.492c13.284,0,24.09,10.807,24.09,24.09v284.411    h-52.21c-4.602,0-8.332,3.731-8.332,8.332s3.731,8.332,8.332,8.332h52.21v15.273c0,13.284-10.807,24.09-24.09,24.09h-155.41    H196.164H40.754c-13.284,0-24.09-10.807-24.09-24.09v-15.273h398.688c4.602,0,8.332-3.731,8.332-8.332s-3.731-8.332-8.332-8.332    H16.664V152.522c0-4.602-3.731-8.332-8.332-8.332c-4.601,0-8.332,3.73-8.332,8.332V381.87c0,22.472,18.283,40.754,40.754,40.754    H183.54l-20.494,47.945h-40.034c-4.602,0-8.332,3.731-8.332,8.332s3.731,8.332,8.332,8.332h265.975    c4.602,0,8.332-3.731,8.332-8.332s-3.731-8.332-8.332-8.332h-40.034l-20.494-47.945h142.786c22.472,0,40.754-18.282,40.754-40.754    V65.52C512,43.049,493.717,24.766,471.246,24.766z M330.83,470.568H181.17l14.238-33.31h121.185L330.83,470.568z"/>
	</g>
</g>
<g>
	<g>
		<path d="M262.924,379.678c-1.914-2.905-5.583-4.298-8.952-3.456c-3.517,0.879-6.116,4.048-6.291,7.67    c-0.364,7.534,9.106,11.629,14.33,6.171C264.674,387.281,265.089,382.886,262.924,379.678z"/>
	</g>
</g>
<g>
</g>
<g>
</g>
<g>
</g>
<g>
</g>
<g>
</g>
<g>
</g>
<g>
</g>
<g>
</g>
<g>
</g>
<g>
</g>
<g>
</g>
<g>
</g>
<g>
</g>
<g>
</g>
<g>
</g>
</svg>
